<svg width="34" height="35" viewBox="0 0 34 35" fill="none" xmlns="http://www.w3.org/2000/svg">
<path d="M17 1.5C8.1632 1.5 1 8.6632 1 17.5C1 26.3368 8.1632 33.5 17 33.5C25.8368 33.5 33 26.3368 33 17.5C33 8.6632 25.8368 1.5 17 1.5Z" stroke="black" stroke-width="2" stroke-linecap="round" stroke-linejoin="round"/>
<path d="M4.63409 27.654C4.63409 27.654 8.20049 23.1004 17.0005 23.1004C25.8005 23.1004 29.3685 27.654 29.3685 27.654M17.0005 17.5004C18.2735 17.5004 19.4944 16.9947 20.3946 16.0945C21.2948 15.1943 21.8005 13.9734 21.8005 12.7004C21.8005 11.4274 21.2948 10.2065 20.3946 9.30628C19.4944 8.4061 18.2735 7.90039 17.0005 7.90039C15.7275 7.90039 14.5066 8.4061 13.6064 9.30628C12.7062 10.2065 12.2005 11.4274 12.2005 12.7004C12.2005 13.9734 12.7062 15.1943 13.6064 16.0945C14.5066 16.9947 15.7275 17.5004 17.0005 17.5004Z" stroke="black" stroke-width="2" stroke-linecap="round" stroke-linejoin="round"/>
</svg>
